<mxfile host="app.diagrams.net" modified="2023-07-31T03:59:40.609Z" agent="Mozilla/5.0 (X11; Linux x86_64) AppleWebKit/537.36 (KHTML, like Gecko) Chrome/113.0.0.0 Safari/537.36" etag="3S5LMZqGNk1hCKgJnzTd" version="21.6.1" type="device">
  <diagram id="zn_9nssedUfgQTs_r1od" name="Page-1">
    <mxGraphModel dx="1434" dy="802" grid="1" gridSize="10" guides="1" tooltips="1" connect="1" arrows="1" fold="1" page="1" pageScale="1" pageWidth="850" pageHeight="1100" math="0" shadow="0">
      <root>
        <mxCell id="0" />
        <mxCell id="1" parent="0" />
        <mxCell id="GCoAhBSmSbJlEYT9IqtD-23" value="" style="group" parent="1" vertex="1" connectable="0">
          <mxGeometry x="40" y="40" width="270" height="130" as="geometry" />
        </mxCell>
        <mxCell id="GCoAhBSmSbJlEYT9IqtD-1" value="" style="endArrow=none;html=1;rounded=0;" parent="GCoAhBSmSbJlEYT9IqtD-23" edge="1">
          <mxGeometry width="50" height="50" relative="1" as="geometry">
            <mxPoint x="30" as="sourcePoint" />
            <mxPoint x="110" y="40" as="targetPoint" />
          </mxGeometry>
        </mxCell>
        <mxCell id="GCoAhBSmSbJlEYT9IqtD-2" value="" style="endArrow=none;html=1;rounded=0;" parent="GCoAhBSmSbJlEYT9IqtD-23" edge="1">
          <mxGeometry width="50" height="50" relative="1" as="geometry">
            <mxPoint x="110" y="100" as="sourcePoint" />
            <mxPoint x="110" y="40" as="targetPoint" />
          </mxGeometry>
        </mxCell>
        <mxCell id="GCoAhBSmSbJlEYT9IqtD-3" value="" style="endArrow=none;html=1;rounded=0;" parent="GCoAhBSmSbJlEYT9IqtD-23" edge="1">
          <mxGeometry width="50" height="50" relative="1" as="geometry">
            <mxPoint x="30" y="130" as="sourcePoint" />
            <mxPoint x="110" y="100" as="targetPoint" />
          </mxGeometry>
        </mxCell>
        <mxCell id="GCoAhBSmSbJlEYT9IqtD-4" value="" style="endArrow=none;html=1;rounded=0;" parent="GCoAhBSmSbJlEYT9IqtD-23" edge="1">
          <mxGeometry width="50" height="50" relative="1" as="geometry">
            <mxPoint y="50" as="sourcePoint" />
            <mxPoint x="30" y="130" as="targetPoint" />
          </mxGeometry>
        </mxCell>
        <mxCell id="GCoAhBSmSbJlEYT9IqtD-5" value="" style="endArrow=none;html=1;rounded=0;" parent="GCoAhBSmSbJlEYT9IqtD-23" edge="1">
          <mxGeometry width="50" height="50" relative="1" as="geometry">
            <mxPoint x="30" as="sourcePoint" />
            <mxPoint y="50" as="targetPoint" />
          </mxGeometry>
        </mxCell>
        <mxCell id="GCoAhBSmSbJlEYT9IqtD-6" value="" style="endArrow=none;html=1;rounded=0;" parent="GCoAhBSmSbJlEYT9IqtD-23" edge="1">
          <mxGeometry width="50" height="50" relative="1" as="geometry">
            <mxPoint x="190" as="sourcePoint" />
            <mxPoint x="270" y="40" as="targetPoint" />
          </mxGeometry>
        </mxCell>
        <mxCell id="GCoAhBSmSbJlEYT9IqtD-7" value="" style="endArrow=none;html=1;rounded=0;" parent="GCoAhBSmSbJlEYT9IqtD-23" edge="1">
          <mxGeometry width="50" height="50" relative="1" as="geometry">
            <mxPoint x="270" y="100" as="sourcePoint" />
            <mxPoint x="270" y="40" as="targetPoint" />
          </mxGeometry>
        </mxCell>
        <mxCell id="GCoAhBSmSbJlEYT9IqtD-8" value="" style="endArrow=none;html=1;rounded=0;" parent="GCoAhBSmSbJlEYT9IqtD-23" edge="1">
          <mxGeometry width="50" height="50" relative="1" as="geometry">
            <mxPoint x="190" y="130" as="sourcePoint" />
            <mxPoint x="270" y="100" as="targetPoint" />
          </mxGeometry>
        </mxCell>
        <mxCell id="GCoAhBSmSbJlEYT9IqtD-9" value="" style="endArrow=none;html=1;rounded=0;" parent="GCoAhBSmSbJlEYT9IqtD-23" edge="1">
          <mxGeometry width="50" height="50" relative="1" as="geometry">
            <mxPoint x="210" y="70" as="sourcePoint" />
            <mxPoint x="190" y="130" as="targetPoint" />
          </mxGeometry>
        </mxCell>
        <mxCell id="GCoAhBSmSbJlEYT9IqtD-10" value="" style="endArrow=none;html=1;rounded=0;" parent="GCoAhBSmSbJlEYT9IqtD-23" edge="1">
          <mxGeometry width="50" height="50" relative="1" as="geometry">
            <mxPoint x="190" as="sourcePoint" />
            <mxPoint x="210" y="70" as="targetPoint" />
          </mxGeometry>
        </mxCell>
        <mxCell id="GCoAhBSmSbJlEYT9IqtD-12" value="" style="endArrow=none;dashed=1;html=1;dashPattern=1 3;strokeWidth=1;rounded=0;fillColor=#d5e8d4;strokeColor=#82b366;" parent="GCoAhBSmSbJlEYT9IqtD-23" edge="1">
          <mxGeometry width="50" height="50" relative="1" as="geometry">
            <mxPoint y="50" as="sourcePoint" />
            <mxPoint x="110" y="40" as="targetPoint" />
          </mxGeometry>
        </mxCell>
        <mxCell id="GCoAhBSmSbJlEYT9IqtD-13" value="" style="endArrow=none;dashed=1;html=1;dashPattern=1 3;strokeWidth=1;rounded=0;fillColor=#d5e8d4;strokeColor=#82b366;" parent="GCoAhBSmSbJlEYT9IqtD-23" edge="1">
          <mxGeometry width="50" height="50" relative="1" as="geometry">
            <mxPoint y="50" as="sourcePoint" />
            <mxPoint x="110" y="100" as="targetPoint" />
          </mxGeometry>
        </mxCell>
        <mxCell id="GCoAhBSmSbJlEYT9IqtD-14" value="" style="endArrow=none;dashed=1;html=1;dashPattern=1 3;strokeWidth=1;rounded=0;fillColor=#d5e8d4;strokeColor=#82b366;" parent="GCoAhBSmSbJlEYT9IqtD-23" edge="1">
          <mxGeometry width="50" height="50" relative="1" as="geometry">
            <mxPoint x="30" as="sourcePoint" />
            <mxPoint x="30" y="130" as="targetPoint" />
          </mxGeometry>
        </mxCell>
        <mxCell id="GCoAhBSmSbJlEYT9IqtD-15" value="" style="endArrow=none;dashed=1;html=1;dashPattern=1 3;strokeWidth=1;rounded=0;fillColor=#d5e8d4;strokeColor=#82b366;" parent="GCoAhBSmSbJlEYT9IqtD-23" edge="1">
          <mxGeometry width="50" height="50" relative="1" as="geometry">
            <mxPoint x="30" as="sourcePoint" />
            <mxPoint x="110" y="100" as="targetPoint" />
          </mxGeometry>
        </mxCell>
        <mxCell id="GCoAhBSmSbJlEYT9IqtD-16" value="" style="endArrow=none;dashed=1;html=1;dashPattern=1 3;strokeWidth=1;rounded=0;fillColor=#d5e8d4;strokeColor=#82b366;" parent="GCoAhBSmSbJlEYT9IqtD-23" edge="1">
          <mxGeometry width="50" height="50" relative="1" as="geometry">
            <mxPoint x="110" y="40" as="sourcePoint" />
            <mxPoint x="30" y="130" as="targetPoint" />
          </mxGeometry>
        </mxCell>
        <mxCell id="GCoAhBSmSbJlEYT9IqtD-17" value="" style="endArrow=none;dashed=1;html=1;dashPattern=1 3;strokeWidth=1;rounded=0;fillColor=#d5e8d4;strokeColor=#82b366;" parent="GCoAhBSmSbJlEYT9IqtD-23" edge="1">
          <mxGeometry width="50" height="50" relative="1" as="geometry">
            <mxPoint x="190" as="sourcePoint" />
            <mxPoint x="270" y="100" as="targetPoint" />
          </mxGeometry>
        </mxCell>
        <mxCell id="GCoAhBSmSbJlEYT9IqtD-18" value="" style="endArrow=none;dashed=1;html=1;dashPattern=1 3;strokeWidth=1;rounded=0;fillColor=#d5e8d4;strokeColor=#82b366;" parent="GCoAhBSmSbJlEYT9IqtD-23" edge="1">
          <mxGeometry width="50" height="50" relative="1" as="geometry">
            <mxPoint x="270" y="40" as="sourcePoint" />
            <mxPoint x="190" y="130" as="targetPoint" />
          </mxGeometry>
        </mxCell>
        <mxCell id="GCoAhBSmSbJlEYT9IqtD-19" value="" style="endArrow=none;dashed=1;html=1;dashPattern=1 3;strokeWidth=1;rounded=0;fillColor=#d5e8d4;strokeColor=#82b366;" parent="GCoAhBSmSbJlEYT9IqtD-23" edge="1">
          <mxGeometry width="50" height="50" relative="1" as="geometry">
            <mxPoint x="270" y="100" as="sourcePoint" />
            <mxPoint x="210" y="70" as="targetPoint" />
          </mxGeometry>
        </mxCell>
        <mxCell id="GCoAhBSmSbJlEYT9IqtD-21" value="" style="endArrow=none;dashed=1;html=1;dashPattern=1 3;strokeWidth=1;rounded=0;fillColor=#d5e8d4;strokeColor=#82b366;" parent="GCoAhBSmSbJlEYT9IqtD-23" edge="1">
          <mxGeometry width="50" height="50" relative="1" as="geometry">
            <mxPoint x="270" y="40" as="sourcePoint" />
            <mxPoint x="210" y="70" as="targetPoint" />
          </mxGeometry>
        </mxCell>
        <mxCell id="GCoAhBSmSbJlEYT9IqtD-22" value="" style="endArrow=none;dashed=1;html=1;dashPattern=1 3;strokeWidth=1;rounded=0;fillColor=#f8cecc;strokeColor=#b85450;" parent="GCoAhBSmSbJlEYT9IqtD-23" edge="1">
          <mxGeometry width="50" height="50" relative="1" as="geometry">
            <mxPoint x="190" as="sourcePoint" />
            <mxPoint x="190" y="130" as="targetPoint" />
          </mxGeometry>
        </mxCell>
        <mxCell id="GCoAhBSmSbJlEYT9IqtD-72" value="0" style="ellipse;whiteSpace=wrap;html=1;aspect=fixed;" parent="1" vertex="1">
          <mxGeometry x="100" y="1140" width="40" height="40" as="geometry" />
        </mxCell>
        <mxCell id="GCoAhBSmSbJlEYT9IqtD-73" value="1" style="ellipse;whiteSpace=wrap;html=1;aspect=fixed;" parent="1" vertex="1">
          <mxGeometry x="140" y="1300" width="40" height="40" as="geometry" />
        </mxCell>
        <mxCell id="GCoAhBSmSbJlEYT9IqtD-74" value="3" style="ellipse;whiteSpace=wrap;html=1;aspect=fixed;" parent="1" vertex="1">
          <mxGeometry x="220" y="1220" width="40" height="40" as="geometry" />
        </mxCell>
        <mxCell id="GCoAhBSmSbJlEYT9IqtD-75" value="4" style="ellipse;whiteSpace=wrap;html=1;aspect=fixed;" parent="1" vertex="1">
          <mxGeometry x="340" y="1260" width="40" height="40" as="geometry" />
        </mxCell>
        <mxCell id="GCoAhBSmSbJlEYT9IqtD-76" value="5" style="ellipse;whiteSpace=wrap;html=1;aspect=fixed;" parent="1" vertex="1">
          <mxGeometry x="180" y="1140" width="40" height="40" as="geometry" />
        </mxCell>
        <mxCell id="GCoAhBSmSbJlEYT9IqtD-77" value="2" style="ellipse;whiteSpace=wrap;html=1;aspect=fixed;" parent="1" vertex="1">
          <mxGeometry x="220" y="1340" width="40" height="40" as="geometry" />
        </mxCell>
        <mxCell id="GCoAhBSmSbJlEYT9IqtD-86" style="edgeStyle=none;rounded=0;orthogonalLoop=1;jettySize=auto;html=1;exitX=0.5;exitY=1;exitDx=0;exitDy=0;entryX=0.15;entryY=0;entryDx=0;entryDy=0;dashed=1;strokeWidth=2;entryPerimeter=0;" parent="1" source="GCoAhBSmSbJlEYT9IqtD-78" target="GCoAhBSmSbJlEYT9IqtD-79" edge="1">
          <mxGeometry relative="1" as="geometry" />
        </mxCell>
        <mxCell id="GCoAhBSmSbJlEYT9IqtD-78" value="0" style="ellipse;whiteSpace=wrap;html=1;aspect=fixed;" parent="1" vertex="1">
          <mxGeometry x="460" y="1140" width="40" height="40" as="geometry" />
        </mxCell>
        <mxCell id="GCoAhBSmSbJlEYT9IqtD-79" value="1" style="ellipse;whiteSpace=wrap;html=1;aspect=fixed;" parent="1" vertex="1">
          <mxGeometry x="500" y="1300" width="40" height="40" as="geometry" />
        </mxCell>
        <mxCell id="GCoAhBSmSbJlEYT9IqtD-80" value="3" style="ellipse;whiteSpace=wrap;html=1;aspect=fixed;" parent="1" vertex="1">
          <mxGeometry x="580" y="1220" width="40" height="40" as="geometry" />
        </mxCell>
        <mxCell id="GCoAhBSmSbJlEYT9IqtD-81" value="4" style="ellipse;whiteSpace=wrap;html=1;aspect=fixed;" parent="1" vertex="1">
          <mxGeometry x="700" y="1260" width="40" height="40" as="geometry" />
        </mxCell>
        <mxCell id="GCoAhBSmSbJlEYT9IqtD-82" value="5" style="ellipse;whiteSpace=wrap;html=1;aspect=fixed;" parent="1" vertex="1">
          <mxGeometry x="540" y="1140" width="40" height="40" as="geometry" />
        </mxCell>
        <mxCell id="GCoAhBSmSbJlEYT9IqtD-83" value="2" style="ellipse;whiteSpace=wrap;html=1;aspect=fixed;" parent="1" vertex="1">
          <mxGeometry x="580" y="1340" width="40" height="40" as="geometry" />
        </mxCell>
        <mxCell id="GCoAhBSmSbJlEYT9IqtD-84" value="0" style="rounded=0;whiteSpace=wrap;html=1;" parent="1" vertex="1">
          <mxGeometry x="760" y="1360" width="40" height="40" as="geometry" />
        </mxCell>
        <mxCell id="GCoAhBSmSbJlEYT9IqtD-85" value="1" style="rounded=0;whiteSpace=wrap;html=1;" parent="1" vertex="1">
          <mxGeometry x="760" y="1320" width="40" height="40" as="geometry" />
        </mxCell>
        <mxCell id="GCoAhBSmSbJlEYT9IqtD-87" style="edgeStyle=none;rounded=0;orthogonalLoop=1;jettySize=auto;html=1;exitX=0.5;exitY=1;exitDx=0;exitDy=0;entryX=0.15;entryY=0;entryDx=0;entryDy=0;dashed=1;strokeWidth=2;entryPerimeter=0;" parent="1" source="GCoAhBSmSbJlEYT9IqtD-88" target="GCoAhBSmSbJlEYT9IqtD-89" edge="1">
          <mxGeometry relative="1" as="geometry" />
        </mxCell>
        <mxCell id="GCoAhBSmSbJlEYT9IqtD-88" value="0" style="ellipse;whiteSpace=wrap;html=1;aspect=fixed;" parent="1" vertex="1">
          <mxGeometry x="100" y="1460" width="40" height="40" as="geometry" />
        </mxCell>
        <mxCell id="GCoAhBSmSbJlEYT9IqtD-96" style="edgeStyle=none;rounded=0;orthogonalLoop=1;jettySize=auto;html=1;exitX=1;exitY=1;exitDx=0;exitDy=0;entryX=0;entryY=0.5;entryDx=0;entryDy=0;dashed=1;strokeWidth=2;" parent="1" source="GCoAhBSmSbJlEYT9IqtD-89" target="GCoAhBSmSbJlEYT9IqtD-93" edge="1">
          <mxGeometry relative="1" as="geometry" />
        </mxCell>
        <mxCell id="GCoAhBSmSbJlEYT9IqtD-89" value="1" style="ellipse;whiteSpace=wrap;html=1;aspect=fixed;" parent="1" vertex="1">
          <mxGeometry x="140" y="1620" width="40" height="40" as="geometry" />
        </mxCell>
        <mxCell id="GCoAhBSmSbJlEYT9IqtD-90" value="3" style="ellipse;whiteSpace=wrap;html=1;aspect=fixed;" parent="1" vertex="1">
          <mxGeometry x="220" y="1540" width="40" height="40" as="geometry" />
        </mxCell>
        <mxCell id="GCoAhBSmSbJlEYT9IqtD-91" value="4" style="ellipse;whiteSpace=wrap;html=1;aspect=fixed;" parent="1" vertex="1">
          <mxGeometry x="340" y="1580" width="40" height="40" as="geometry" />
        </mxCell>
        <mxCell id="GCoAhBSmSbJlEYT9IqtD-92" value="5" style="ellipse;whiteSpace=wrap;html=1;aspect=fixed;" parent="1" vertex="1">
          <mxGeometry x="180" y="1460" width="40" height="40" as="geometry" />
        </mxCell>
        <mxCell id="GCoAhBSmSbJlEYT9IqtD-93" value="2" style="ellipse;whiteSpace=wrap;html=1;aspect=fixed;" parent="1" vertex="1">
          <mxGeometry x="220" y="1660" width="40" height="40" as="geometry" />
        </mxCell>
        <mxCell id="GCoAhBSmSbJlEYT9IqtD-94" value="0" style="rounded=0;whiteSpace=wrap;html=1;" parent="1" vertex="1">
          <mxGeometry x="400" y="1680" width="40" height="40" as="geometry" />
        </mxCell>
        <mxCell id="GCoAhBSmSbJlEYT9IqtD-95" value="1" style="rounded=0;whiteSpace=wrap;html=1;" parent="1" vertex="1">
          <mxGeometry x="400" y="1640" width="40" height="40" as="geometry" />
        </mxCell>
        <mxCell id="GCoAhBSmSbJlEYT9IqtD-97" value="2" style="rounded=0;whiteSpace=wrap;html=1;" parent="1" vertex="1">
          <mxGeometry x="400" y="1600" width="40" height="40" as="geometry" />
        </mxCell>
        <mxCell id="GCoAhBSmSbJlEYT9IqtD-98" style="edgeStyle=none;rounded=0;orthogonalLoop=1;jettySize=auto;html=1;exitX=0.5;exitY=1;exitDx=0;exitDy=0;entryX=0.15;entryY=0;entryDx=0;entryDy=0;dashed=1;strokeWidth=2;entryPerimeter=0;" parent="1" source="GCoAhBSmSbJlEYT9IqtD-99" target="GCoAhBSmSbJlEYT9IqtD-101" edge="1">
          <mxGeometry relative="1" as="geometry" />
        </mxCell>
        <mxCell id="GCoAhBSmSbJlEYT9IqtD-99" value="0" style="ellipse;whiteSpace=wrap;html=1;aspect=fixed;" parent="1" vertex="1">
          <mxGeometry x="460" y="1460" width="40" height="40" as="geometry" />
        </mxCell>
        <mxCell id="GCoAhBSmSbJlEYT9IqtD-100" style="edgeStyle=none;rounded=0;orthogonalLoop=1;jettySize=auto;html=1;exitX=1;exitY=1;exitDx=0;exitDy=0;entryX=0;entryY=0.5;entryDx=0;entryDy=0;dashed=1;strokeWidth=2;" parent="1" source="GCoAhBSmSbJlEYT9IqtD-101" target="GCoAhBSmSbJlEYT9IqtD-105" edge="1">
          <mxGeometry relative="1" as="geometry" />
        </mxCell>
        <mxCell id="GCoAhBSmSbJlEYT9IqtD-101" value="1" style="ellipse;whiteSpace=wrap;html=1;aspect=fixed;" parent="1" vertex="1">
          <mxGeometry x="500" y="1620" width="40" height="40" as="geometry" />
        </mxCell>
        <mxCell id="GCoAhBSmSbJlEYT9IqtD-102" value="3" style="ellipse;whiteSpace=wrap;html=1;aspect=fixed;" parent="1" vertex="1">
          <mxGeometry x="580" y="1540" width="40" height="40" as="geometry" />
        </mxCell>
        <mxCell id="GCoAhBSmSbJlEYT9IqtD-103" value="4" style="ellipse;whiteSpace=wrap;html=1;aspect=fixed;" parent="1" vertex="1">
          <mxGeometry x="700" y="1580" width="40" height="40" as="geometry" />
        </mxCell>
        <mxCell id="GCoAhBSmSbJlEYT9IqtD-104" value="5" style="ellipse;whiteSpace=wrap;html=1;aspect=fixed;" parent="1" vertex="1">
          <mxGeometry x="540" y="1460" width="40" height="40" as="geometry" />
        </mxCell>
        <mxCell id="GCoAhBSmSbJlEYT9IqtD-105" value="2" style="ellipse;whiteSpace=wrap;html=1;aspect=fixed;" parent="1" vertex="1">
          <mxGeometry x="580" y="1660" width="40" height="40" as="geometry" />
        </mxCell>
        <mxCell id="GCoAhBSmSbJlEYT9IqtD-106" value="0" style="rounded=0;whiteSpace=wrap;html=1;" parent="1" vertex="1">
          <mxGeometry x="760" y="1680" width="40" height="40" as="geometry" />
        </mxCell>
        <mxCell id="GCoAhBSmSbJlEYT9IqtD-107" value="1" style="rounded=0;whiteSpace=wrap;html=1;" parent="1" vertex="1">
          <mxGeometry x="760" y="1640" width="40" height="40" as="geometry" />
        </mxCell>
        <mxCell id="GCoAhBSmSbJlEYT9IqtD-108" value="2" style="rounded=0;whiteSpace=wrap;html=1;" parent="1" vertex="1">
          <mxGeometry x="760" y="1600" width="40" height="40" as="geometry" />
        </mxCell>
        <mxCell id="GCoAhBSmSbJlEYT9IqtD-110" value="3" style="rounded=0;whiteSpace=wrap;html=1;" parent="1" vertex="1">
          <mxGeometry x="760" y="1560" width="40" height="40" as="geometry" />
        </mxCell>
        <mxCell id="GCoAhBSmSbJlEYT9IqtD-112" style="edgeStyle=none;rounded=0;orthogonalLoop=1;jettySize=auto;html=1;exitX=0.5;exitY=1;exitDx=0;exitDy=0;entryX=0.15;entryY=0;entryDx=0;entryDy=0;dashed=1;strokeWidth=2;entryPerimeter=0;" parent="1" source="GCoAhBSmSbJlEYT9IqtD-113" target="GCoAhBSmSbJlEYT9IqtD-115" edge="1">
          <mxGeometry relative="1" as="geometry" />
        </mxCell>
        <mxCell id="GCoAhBSmSbJlEYT9IqtD-113" value="0" style="ellipse;whiteSpace=wrap;html=1;aspect=fixed;" parent="1" vertex="1">
          <mxGeometry x="100" y="1780" width="40" height="40" as="geometry" />
        </mxCell>
        <mxCell id="GCoAhBSmSbJlEYT9IqtD-114" style="edgeStyle=none;rounded=0;orthogonalLoop=1;jettySize=auto;html=1;exitX=1;exitY=1;exitDx=0;exitDy=0;entryX=0;entryY=0.5;entryDx=0;entryDy=0;dashed=1;strokeWidth=2;" parent="1" source="GCoAhBSmSbJlEYT9IqtD-115" target="GCoAhBSmSbJlEYT9IqtD-120" edge="1">
          <mxGeometry relative="1" as="geometry" />
        </mxCell>
        <mxCell id="GCoAhBSmSbJlEYT9IqtD-115" value="1" style="ellipse;whiteSpace=wrap;html=1;aspect=fixed;" parent="1" vertex="1">
          <mxGeometry x="140" y="1940" width="40" height="40" as="geometry" />
        </mxCell>
        <mxCell id="GCoAhBSmSbJlEYT9IqtD-116" value="3" style="ellipse;whiteSpace=wrap;html=1;aspect=fixed;strokeColor=#B3B3B3;" parent="1" vertex="1">
          <mxGeometry x="220" y="1860" width="40" height="40" as="geometry" />
        </mxCell>
        <mxCell id="GCoAhBSmSbJlEYT9IqtD-117" value="4" style="ellipse;whiteSpace=wrap;html=1;aspect=fixed;" parent="1" vertex="1">
          <mxGeometry x="340" y="1900" width="40" height="40" as="geometry" />
        </mxCell>
        <mxCell id="GCoAhBSmSbJlEYT9IqtD-118" value="5" style="ellipse;whiteSpace=wrap;html=1;aspect=fixed;" parent="1" vertex="1">
          <mxGeometry x="180" y="1780" width="40" height="40" as="geometry" />
        </mxCell>
        <mxCell id="GCoAhBSmSbJlEYT9IqtD-119" style="edgeStyle=none;rounded=0;orthogonalLoop=1;jettySize=auto;html=1;dashed=1;strokeWidth=2;strokeColor=#B3B3B3;" parent="1" source="GCoAhBSmSbJlEYT9IqtD-120" target="GCoAhBSmSbJlEYT9IqtD-116" edge="1">
          <mxGeometry relative="1" as="geometry" />
        </mxCell>
        <mxCell id="GCoAhBSmSbJlEYT9IqtD-120" value="2" style="ellipse;whiteSpace=wrap;html=1;aspect=fixed;" parent="1" vertex="1">
          <mxGeometry x="220" y="1980" width="40" height="40" as="geometry" />
        </mxCell>
        <mxCell id="GCoAhBSmSbJlEYT9IqtD-121" value="0" style="rounded=0;whiteSpace=wrap;html=1;" parent="1" vertex="1">
          <mxGeometry x="400" y="2000" width="40" height="40" as="geometry" />
        </mxCell>
        <mxCell id="GCoAhBSmSbJlEYT9IqtD-122" value="1" style="rounded=0;whiteSpace=wrap;html=1;" parent="1" vertex="1">
          <mxGeometry x="400" y="1960" width="40" height="40" as="geometry" />
        </mxCell>
        <mxCell id="GCoAhBSmSbJlEYT9IqtD-123" value="2" style="rounded=0;whiteSpace=wrap;html=1;" parent="1" vertex="1">
          <mxGeometry x="400" y="1920" width="40" height="40" as="geometry" />
        </mxCell>
        <mxCell id="GCoAhBSmSbJlEYT9IqtD-127" style="edgeStyle=none;rounded=0;orthogonalLoop=1;jettySize=auto;html=1;exitX=0.5;exitY=1;exitDx=0;exitDy=0;entryX=0.15;entryY=0;entryDx=0;entryDy=0;dashed=1;strokeWidth=2;entryPerimeter=0;" parent="1" source="GCoAhBSmSbJlEYT9IqtD-128" target="GCoAhBSmSbJlEYT9IqtD-130" edge="1">
          <mxGeometry relative="1" as="geometry" />
        </mxCell>
        <mxCell id="GCoAhBSmSbJlEYT9IqtD-128" value="0" style="ellipse;whiteSpace=wrap;html=1;aspect=fixed;" parent="1" vertex="1">
          <mxGeometry x="460" y="1780" width="40" height="40" as="geometry" />
        </mxCell>
        <mxCell id="GCoAhBSmSbJlEYT9IqtD-129" style="edgeStyle=none;rounded=0;orthogonalLoop=1;jettySize=auto;html=1;exitX=1;exitY=1;exitDx=0;exitDy=0;entryX=0;entryY=0.5;entryDx=0;entryDy=0;dashed=1;strokeWidth=2;" parent="1" source="GCoAhBSmSbJlEYT9IqtD-130" target="GCoAhBSmSbJlEYT9IqtD-136" edge="1">
          <mxGeometry relative="1" as="geometry" />
        </mxCell>
        <mxCell id="GCoAhBSmSbJlEYT9IqtD-130" value="1" style="ellipse;whiteSpace=wrap;html=1;aspect=fixed;" parent="1" vertex="1">
          <mxGeometry x="500" y="1940" width="40" height="40" as="geometry" />
        </mxCell>
        <mxCell id="GCoAhBSmSbJlEYT9IqtD-131" value="3" style="ellipse;whiteSpace=wrap;html=1;aspect=fixed;" parent="1" vertex="1">
          <mxGeometry x="580" y="1860" width="40" height="40" as="geometry" />
        </mxCell>
        <mxCell id="GCoAhBSmSbJlEYT9IqtD-133" value="4" style="ellipse;whiteSpace=wrap;html=1;aspect=fixed;" parent="1" vertex="1">
          <mxGeometry x="700" y="1900" width="40" height="40" as="geometry" />
        </mxCell>
        <mxCell id="GCoAhBSmSbJlEYT9IqtD-134" value="5" style="ellipse;whiteSpace=wrap;html=1;aspect=fixed;" parent="1" vertex="1">
          <mxGeometry x="540" y="1780" width="40" height="40" as="geometry" />
        </mxCell>
        <mxCell id="GCoAhBSmSbJlEYT9IqtD-135" style="edgeStyle=none;rounded=0;orthogonalLoop=1;jettySize=auto;html=1;exitX=1;exitY=0.5;exitDx=0;exitDy=0;entryX=0;entryY=1;entryDx=0;entryDy=0;dashed=1;strokeWidth=2;" parent="1" source="GCoAhBSmSbJlEYT9IqtD-136" target="GCoAhBSmSbJlEYT9IqtD-133" edge="1">
          <mxGeometry relative="1" as="geometry" />
        </mxCell>
        <mxCell id="GCoAhBSmSbJlEYT9IqtD-136" value="2" style="ellipse;whiteSpace=wrap;html=1;aspect=fixed;" parent="1" vertex="1">
          <mxGeometry x="580" y="1980" width="40" height="40" as="geometry" />
        </mxCell>
        <mxCell id="GCoAhBSmSbJlEYT9IqtD-137" value="0" style="rounded=0;whiteSpace=wrap;html=1;" parent="1" vertex="1">
          <mxGeometry x="760" y="2000" width="40" height="40" as="geometry" />
        </mxCell>
        <mxCell id="GCoAhBSmSbJlEYT9IqtD-138" value="1" style="rounded=0;whiteSpace=wrap;html=1;" parent="1" vertex="1">
          <mxGeometry x="760" y="1960" width="40" height="40" as="geometry" />
        </mxCell>
        <mxCell id="GCoAhBSmSbJlEYT9IqtD-139" value="2" style="rounded=0;whiteSpace=wrap;html=1;" parent="1" vertex="1">
          <mxGeometry x="760" y="1920" width="40" height="40" as="geometry" />
        </mxCell>
        <mxCell id="GCoAhBSmSbJlEYT9IqtD-140" value="4" style="rounded=0;whiteSpace=wrap;html=1;" parent="1" vertex="1">
          <mxGeometry x="760" y="1880" width="40" height="40" as="geometry" />
        </mxCell>
        <mxCell id="GCoAhBSmSbJlEYT9IqtD-142" style="edgeStyle=none;rounded=0;orthogonalLoop=1;jettySize=auto;html=1;exitX=0.5;exitY=1;exitDx=0;exitDy=0;entryX=0.15;entryY=0;entryDx=0;entryDy=0;dashed=1;strokeWidth=2;entryPerimeter=0;" parent="1" source="GCoAhBSmSbJlEYT9IqtD-143" target="GCoAhBSmSbJlEYT9IqtD-145" edge="1">
          <mxGeometry relative="1" as="geometry" />
        </mxCell>
        <mxCell id="GCoAhBSmSbJlEYT9IqtD-143" value="0" style="ellipse;whiteSpace=wrap;html=1;aspect=fixed;" parent="1" vertex="1">
          <mxGeometry x="100" y="2100" width="40" height="40" as="geometry" />
        </mxCell>
        <mxCell id="GCoAhBSmSbJlEYT9IqtD-144" style="edgeStyle=none;rounded=0;orthogonalLoop=1;jettySize=auto;html=1;exitX=1;exitY=1;exitDx=0;exitDy=0;entryX=0;entryY=0.5;entryDx=0;entryDy=0;dashed=1;strokeWidth=2;" parent="1" source="GCoAhBSmSbJlEYT9IqtD-145" target="GCoAhBSmSbJlEYT9IqtD-150" edge="1">
          <mxGeometry relative="1" as="geometry" />
        </mxCell>
        <mxCell id="GCoAhBSmSbJlEYT9IqtD-145" value="1" style="ellipse;whiteSpace=wrap;html=1;aspect=fixed;" parent="1" vertex="1">
          <mxGeometry x="140" y="2260" width="40" height="40" as="geometry" />
        </mxCell>
        <mxCell id="GCoAhBSmSbJlEYT9IqtD-146" value="3" style="ellipse;whiteSpace=wrap;html=1;aspect=fixed;" parent="1" vertex="1">
          <mxGeometry x="220" y="2180" width="40" height="40" as="geometry" />
        </mxCell>
        <mxCell id="GCoAhBSmSbJlEYT9IqtD-155" style="edgeStyle=none;rounded=0;orthogonalLoop=1;jettySize=auto;html=1;exitX=0;exitY=0;exitDx=0;exitDy=0;entryX=1;entryY=0.5;entryDx=0;entryDy=0;dashed=1;strokeWidth=2;" parent="1" source="GCoAhBSmSbJlEYT9IqtD-147" target="GCoAhBSmSbJlEYT9IqtD-148" edge="1">
          <mxGeometry relative="1" as="geometry" />
        </mxCell>
        <mxCell id="GCoAhBSmSbJlEYT9IqtD-147" value="4" style="ellipse;whiteSpace=wrap;html=1;aspect=fixed;" parent="1" vertex="1">
          <mxGeometry x="340" y="2220" width="40" height="40" as="geometry" />
        </mxCell>
        <mxCell id="GCoAhBSmSbJlEYT9IqtD-148" value="5" style="ellipse;whiteSpace=wrap;html=1;aspect=fixed;" parent="1" vertex="1">
          <mxGeometry x="180" y="2100" width="40" height="40" as="geometry" />
        </mxCell>
        <mxCell id="GCoAhBSmSbJlEYT9IqtD-149" style="edgeStyle=none;rounded=0;orthogonalLoop=1;jettySize=auto;html=1;exitX=1;exitY=0.5;exitDx=0;exitDy=0;entryX=0;entryY=1;entryDx=0;entryDy=0;dashed=1;strokeWidth=2;" parent="1" source="GCoAhBSmSbJlEYT9IqtD-150" target="GCoAhBSmSbJlEYT9IqtD-147" edge="1">
          <mxGeometry relative="1" as="geometry" />
        </mxCell>
        <mxCell id="GCoAhBSmSbJlEYT9IqtD-150" value="2" style="ellipse;whiteSpace=wrap;html=1;aspect=fixed;" parent="1" vertex="1">
          <mxGeometry x="220" y="2300" width="40" height="40" as="geometry" />
        </mxCell>
        <mxCell id="GCoAhBSmSbJlEYT9IqtD-151" value="0" style="rounded=0;whiteSpace=wrap;html=1;" parent="1" vertex="1">
          <mxGeometry x="400" y="2320" width="40" height="40" as="geometry" />
        </mxCell>
        <mxCell id="GCoAhBSmSbJlEYT9IqtD-152" value="1" style="rounded=0;whiteSpace=wrap;html=1;" parent="1" vertex="1">
          <mxGeometry x="400" y="2280" width="40" height="40" as="geometry" />
        </mxCell>
        <mxCell id="GCoAhBSmSbJlEYT9IqtD-153" value="2" style="rounded=0;whiteSpace=wrap;html=1;" parent="1" vertex="1">
          <mxGeometry x="400" y="2240" width="40" height="40" as="geometry" />
        </mxCell>
        <mxCell id="GCoAhBSmSbJlEYT9IqtD-154" value="4" style="rounded=0;whiteSpace=wrap;html=1;" parent="1" vertex="1">
          <mxGeometry x="400" y="2200" width="40" height="40" as="geometry" />
        </mxCell>
        <mxCell id="GCoAhBSmSbJlEYT9IqtD-156" value="5" style="rounded=0;whiteSpace=wrap;html=1;" parent="1" vertex="1">
          <mxGeometry x="400" y="2160" width="40" height="40" as="geometry" />
        </mxCell>
        <mxCell id="GCoAhBSmSbJlEYT9IqtD-164" style="edgeStyle=none;rounded=0;orthogonalLoop=1;jettySize=auto;html=1;exitX=0.5;exitY=1;exitDx=0;exitDy=0;entryX=0.15;entryY=0;entryDx=0;entryDy=0;strokeWidth=2;entryPerimeter=0;endArrow=none;endFill=0;fillColor=#f8cecc;strokeColor=#b85450;" parent="1" source="GCoAhBSmSbJlEYT9IqtD-165" target="GCoAhBSmSbJlEYT9IqtD-167" edge="1">
          <mxGeometry relative="1" as="geometry" />
        </mxCell>
        <mxCell id="GCoAhBSmSbJlEYT9IqtD-165" value="0" style="ellipse;whiteSpace=wrap;html=1;aspect=fixed;" parent="1" vertex="1">
          <mxGeometry x="460" y="2100" width="40" height="40" as="geometry" />
        </mxCell>
        <mxCell id="GCoAhBSmSbJlEYT9IqtD-166" style="edgeStyle=none;rounded=0;orthogonalLoop=1;jettySize=auto;html=1;exitX=1;exitY=1;exitDx=0;exitDy=0;entryX=0;entryY=0.5;entryDx=0;entryDy=0;strokeWidth=2;endArrow=none;endFill=0;fillColor=#f8cecc;strokeColor=#b85450;" parent="1" source="GCoAhBSmSbJlEYT9IqtD-167" target="GCoAhBSmSbJlEYT9IqtD-173" edge="1">
          <mxGeometry relative="1" as="geometry" />
        </mxCell>
        <mxCell id="GCoAhBSmSbJlEYT9IqtD-167" value="1" style="ellipse;whiteSpace=wrap;html=1;aspect=fixed;" parent="1" vertex="1">
          <mxGeometry x="500" y="2260" width="40" height="40" as="geometry" />
        </mxCell>
        <mxCell id="GCoAhBSmSbJlEYT9IqtD-168" value="3" style="ellipse;whiteSpace=wrap;html=1;aspect=fixed;" parent="1" vertex="1">
          <mxGeometry x="580" y="2180" width="40" height="40" as="geometry" />
        </mxCell>
        <mxCell id="GCoAhBSmSbJlEYT9IqtD-169" style="edgeStyle=none;rounded=0;orthogonalLoop=1;jettySize=auto;html=1;exitX=0;exitY=0;exitDx=0;exitDy=0;entryX=1;entryY=0.5;entryDx=0;entryDy=0;strokeWidth=2;fillColor=#f8cecc;strokeColor=#b85450;endArrow=none;endFill=0;" parent="1" source="GCoAhBSmSbJlEYT9IqtD-170" target="GCoAhBSmSbJlEYT9IqtD-171" edge="1">
          <mxGeometry relative="1" as="geometry" />
        </mxCell>
        <mxCell id="GCoAhBSmSbJlEYT9IqtD-170" value="4" style="ellipse;whiteSpace=wrap;html=1;aspect=fixed;" parent="1" vertex="1">
          <mxGeometry x="700" y="2220" width="40" height="40" as="geometry" />
        </mxCell>
        <mxCell id="GCoAhBSmSbJlEYT9IqtD-179" style="edgeStyle=none;rounded=0;orthogonalLoop=1;jettySize=auto;html=1;exitX=0;exitY=0.5;exitDx=0;exitDy=0;entryX=1;entryY=0.5;entryDx=0;entryDy=0;strokeWidth=2;fillColor=#f8cecc;strokeColor=#b85450;endArrow=none;endFill=0;" parent="1" source="GCoAhBSmSbJlEYT9IqtD-171" target="GCoAhBSmSbJlEYT9IqtD-165" edge="1">
          <mxGeometry relative="1" as="geometry" />
        </mxCell>
        <mxCell id="GCoAhBSmSbJlEYT9IqtD-171" value="5" style="ellipse;whiteSpace=wrap;html=1;aspect=fixed;" parent="1" vertex="1">
          <mxGeometry x="540" y="2100" width="40" height="40" as="geometry" />
        </mxCell>
        <mxCell id="GCoAhBSmSbJlEYT9IqtD-172" style="edgeStyle=none;rounded=0;orthogonalLoop=1;jettySize=auto;html=1;exitX=1;exitY=0.5;exitDx=0;exitDy=0;entryX=0;entryY=1;entryDx=0;entryDy=0;strokeWidth=2;endArrow=none;endFill=0;strokeColor=#b85450;fillColor=#f8cecc;" parent="1" source="GCoAhBSmSbJlEYT9IqtD-173" target="GCoAhBSmSbJlEYT9IqtD-170" edge="1">
          <mxGeometry relative="1" as="geometry" />
        </mxCell>
        <mxCell id="GCoAhBSmSbJlEYT9IqtD-173" value="2" style="ellipse;whiteSpace=wrap;html=1;aspect=fixed;" parent="1" vertex="1">
          <mxGeometry x="580" y="2300" width="40" height="40" as="geometry" />
        </mxCell>
        <mxCell id="GCoAhBSmSbJlEYT9IqtD-174" value="0" style="rounded=0;whiteSpace=wrap;html=1;" parent="1" vertex="1">
          <mxGeometry x="760" y="2320" width="40" height="40" as="geometry" />
        </mxCell>
        <mxCell id="GCoAhBSmSbJlEYT9IqtD-175" value="1" style="rounded=0;whiteSpace=wrap;html=1;" parent="1" vertex="1">
          <mxGeometry x="760" y="2280" width="40" height="40" as="geometry" />
        </mxCell>
        <mxCell id="GCoAhBSmSbJlEYT9IqtD-176" value="2" style="rounded=0;whiteSpace=wrap;html=1;" parent="1" vertex="1">
          <mxGeometry x="760" y="2240" width="40" height="40" as="geometry" />
        </mxCell>
        <mxCell id="GCoAhBSmSbJlEYT9IqtD-177" value="4" style="rounded=0;whiteSpace=wrap;html=1;" parent="1" vertex="1">
          <mxGeometry x="760" y="2200" width="40" height="40" as="geometry" />
        </mxCell>
        <mxCell id="GCoAhBSmSbJlEYT9IqtD-178" value="5" style="rounded=0;whiteSpace=wrap;html=1;" parent="1" vertex="1">
          <mxGeometry x="760" y="2160" width="40" height="40" as="geometry" />
        </mxCell>
        <mxCell id="GCoAhBSmSbJlEYT9IqtD-181" value="" style="group" parent="1" vertex="1" connectable="0">
          <mxGeometry x="120.35898384862246" y="261.33974596215563" width="239.64101615137753" height="178.66025403784437" as="geometry" />
        </mxCell>
        <mxCell id="GCoAhBSmSbJlEYT9IqtD-24" value="" style="shape=parallelogram;perimeter=parallelogramPerimeter;whiteSpace=wrap;html=1;fixedSize=1;" parent="GCoAhBSmSbJlEYT9IqtD-181" vertex="1">
          <mxGeometry x="39.64101615137754" y="18.660254037844368" width="200" height="160" as="geometry" />
        </mxCell>
        <mxCell id="GCoAhBSmSbJlEYT9IqtD-25" value="" style="shape=parallelogram;perimeter=parallelogramPerimeter;whiteSpace=wrap;html=1;fixedSize=1;" parent="GCoAhBSmSbJlEYT9IqtD-181" vertex="1">
          <mxGeometry x="29.641016151377542" y="8.660254037844368" width="200" height="160" as="geometry" />
        </mxCell>
        <mxCell id="GCoAhBSmSbJlEYT9IqtD-26" value="" style="endArrow=none;html=1;rounded=0;strokeWidth=1;entryX=0;entryY=1;entryDx=0;entryDy=0;exitX=0;exitY=1;exitDx=0;exitDy=0;" parent="GCoAhBSmSbJlEYT9IqtD-181" source="GCoAhBSmSbJlEYT9IqtD-24" target="GCoAhBSmSbJlEYT9IqtD-25" edge="1">
          <mxGeometry width="50" height="50" relative="1" as="geometry">
            <mxPoint x="379.6410161513775" y="228.66025403784437" as="sourcePoint" />
            <mxPoint x="429.6410161513775" y="178.66025403784437" as="targetPoint" />
          </mxGeometry>
        </mxCell>
        <mxCell id="GCoAhBSmSbJlEYT9IqtD-27" value="" style="endArrow=none;html=1;rounded=0;strokeWidth=1;exitX=0.88;exitY=1;exitDx=0;exitDy=0;exitPerimeter=0;entryX=0.895;entryY=0.994;entryDx=0;entryDy=0;entryPerimeter=0;" parent="GCoAhBSmSbJlEYT9IqtD-181" source="GCoAhBSmSbJlEYT9IqtD-24" target="GCoAhBSmSbJlEYT9IqtD-25" edge="1">
          <mxGeometry width="50" height="50" relative="1" as="geometry">
            <mxPoint x="379.6410161513775" y="228.66025403784437" as="sourcePoint" />
            <mxPoint x="339.6410161513775" y="168.66025403784437" as="targetPoint" />
          </mxGeometry>
        </mxCell>
        <mxCell id="GCoAhBSmSbJlEYT9IqtD-28" value="" style="endArrow=none;html=1;rounded=0;strokeWidth=1;entryX=1;entryY=0;entryDx=0;entryDy=0;exitX=1;exitY=0;exitDx=0;exitDy=0;" parent="GCoAhBSmSbJlEYT9IqtD-181" source="GCoAhBSmSbJlEYT9IqtD-25" target="GCoAhBSmSbJlEYT9IqtD-24" edge="1">
          <mxGeometry width="50" height="50" relative="1" as="geometry">
            <mxPoint x="379.6410161513775" y="228.66025403784437" as="sourcePoint" />
            <mxPoint x="429.6410161513775" y="178.66025403784437" as="targetPoint" />
          </mxGeometry>
        </mxCell>
        <mxCell id="GCoAhBSmSbJlEYT9IqtD-29" value="" style="shape=singleArrow;direction=north;whiteSpace=wrap;html=1;arrowWidth=0.16666666666666666;arrowSize=0.075;rotation=-60;" parent="GCoAhBSmSbJlEYT9IqtD-181" vertex="1">
          <mxGeometry x="39.64101615137754" y="-11.339745962155632" width="20" height="80" as="geometry" />
        </mxCell>
        <mxCell id="GCoAhBSmSbJlEYT9IqtD-30" value="" style="shape=singleArrow;direction=north;whiteSpace=wrap;html=1;arrowWidth=0.16666666666666666;arrowSize=0.075;rotation=-60;" parent="GCoAhBSmSbJlEYT9IqtD-181" vertex="1">
          <mxGeometry x="44.64101615137754" y="28.660254037844368" width="20" height="80" as="geometry" />
        </mxCell>
        <mxCell id="GCoAhBSmSbJlEYT9IqtD-31" value="" style="shape=singleArrow;direction=north;whiteSpace=wrap;html=1;arrowWidth=0.16666666666666666;arrowSize=0.075;rotation=-60;" parent="GCoAhBSmSbJlEYT9IqtD-181" vertex="1">
          <mxGeometry x="29.641016151377542" y="68.66025403784437" width="20" height="80" as="geometry" />
        </mxCell>
        <mxCell id="GCoAhBSmSbJlEYT9IqtD-32" value="" style="shape=singleArrow;direction=north;whiteSpace=wrap;html=1;arrowWidth=0.16666666666666666;arrowSize=0.075;rotation=-60;" parent="GCoAhBSmSbJlEYT9IqtD-181" vertex="1">
          <mxGeometry x="89.64101615137754" y="68.66025403784437" width="20" height="80" as="geometry" />
        </mxCell>
        <mxCell id="GCoAhBSmSbJlEYT9IqtD-33" value="" style="shape=singleArrow;direction=north;whiteSpace=wrap;html=1;arrowWidth=0.16666666666666666;arrowSize=0.075;rotation=-60;" parent="GCoAhBSmSbJlEYT9IqtD-181" vertex="1">
          <mxGeometry x="119.64101615137754" y="18.660254037844368" width="20" height="80" as="geometry" />
        </mxCell>
        <mxCell id="GCoAhBSmSbJlEYT9IqtD-35" value="" style="shape=singleArrow;direction=north;whiteSpace=wrap;html=1;arrowWidth=0.16666666666666666;arrowSize=0.075;rotation=-60;" parent="GCoAhBSmSbJlEYT9IqtD-181" vertex="1">
          <mxGeometry x="139.64101615137753" y="58.66025403784437" width="20" height="80" as="geometry" />
        </mxCell>
        <mxCell id="GCoAhBSmSbJlEYT9IqtD-182" value="" style="group" parent="1" vertex="1" connectable="0">
          <mxGeometry x="125.35898384862246" y="501.33974596215563" width="524.6410161513776" height="258.66025403784437" as="geometry" />
        </mxCell>
        <mxCell id="GCoAhBSmSbJlEYT9IqtD-36" value="" style="shape=parallelogram;perimeter=parallelogramPerimeter;whiteSpace=wrap;html=1;fixedSize=1;" parent="GCoAhBSmSbJlEYT9IqtD-182" vertex="1">
          <mxGeometry x="39.64101615137754" y="18.660254037844368" width="200" height="160" as="geometry" />
        </mxCell>
        <mxCell id="GCoAhBSmSbJlEYT9IqtD-37" value="" style="shape=parallelogram;perimeter=parallelogramPerimeter;whiteSpace=wrap;html=1;fixedSize=1;" parent="GCoAhBSmSbJlEYT9IqtD-182" vertex="1">
          <mxGeometry x="29.641016151377542" y="8.660254037844368" width="200" height="160" as="geometry" />
        </mxCell>
        <mxCell id="GCoAhBSmSbJlEYT9IqtD-38" value="" style="endArrow=none;html=1;rounded=0;strokeWidth=1;entryX=0;entryY=1;entryDx=0;entryDy=0;exitX=0;exitY=1;exitDx=0;exitDy=0;" parent="GCoAhBSmSbJlEYT9IqtD-182" source="GCoAhBSmSbJlEYT9IqtD-36" target="GCoAhBSmSbJlEYT9IqtD-37" edge="1">
          <mxGeometry width="50" height="50" relative="1" as="geometry">
            <mxPoint x="379.6410161513775" y="228.66025403784437" as="sourcePoint" />
            <mxPoint x="429.6410161513775" y="178.66025403784437" as="targetPoint" />
          </mxGeometry>
        </mxCell>
        <mxCell id="GCoAhBSmSbJlEYT9IqtD-39" value="" style="endArrow=none;html=1;rounded=0;strokeWidth=1;exitX=0.88;exitY=1;exitDx=0;exitDy=0;exitPerimeter=0;entryX=0.895;entryY=0.994;entryDx=0;entryDy=0;entryPerimeter=0;" parent="GCoAhBSmSbJlEYT9IqtD-182" source="GCoAhBSmSbJlEYT9IqtD-36" target="GCoAhBSmSbJlEYT9IqtD-37" edge="1">
          <mxGeometry width="50" height="50" relative="1" as="geometry">
            <mxPoint x="379.6410161513775" y="228.66025403784437" as="sourcePoint" />
            <mxPoint x="339.6410161513775" y="168.66025403784437" as="targetPoint" />
          </mxGeometry>
        </mxCell>
        <mxCell id="GCoAhBSmSbJlEYT9IqtD-40" value="" style="endArrow=none;html=1;rounded=0;strokeWidth=1;entryX=1;entryY=0;entryDx=0;entryDy=0;exitX=1;exitY=0;exitDx=0;exitDy=0;" parent="GCoAhBSmSbJlEYT9IqtD-182" source="GCoAhBSmSbJlEYT9IqtD-37" target="GCoAhBSmSbJlEYT9IqtD-36" edge="1">
          <mxGeometry width="50" height="50" relative="1" as="geometry">
            <mxPoint x="379.6410161513775" y="228.66025403784437" as="sourcePoint" />
            <mxPoint x="429.6410161513775" y="178.66025403784437" as="targetPoint" />
          </mxGeometry>
        </mxCell>
        <mxCell id="GCoAhBSmSbJlEYT9IqtD-41" value="" style="shape=singleArrow;direction=north;whiteSpace=wrap;html=1;arrowWidth=0.16666666666666666;arrowSize=0.075;rotation=-60;" parent="GCoAhBSmSbJlEYT9IqtD-182" vertex="1">
          <mxGeometry x="39.64101615137754" y="-11.339745962155632" width="20" height="80" as="geometry" />
        </mxCell>
        <mxCell id="GCoAhBSmSbJlEYT9IqtD-42" value="" style="shape=singleArrow;direction=north;whiteSpace=wrap;html=1;arrowWidth=0.16666666666666666;arrowSize=0.075;rotation=-60;" parent="GCoAhBSmSbJlEYT9IqtD-182" vertex="1">
          <mxGeometry x="44.64101615137754" y="28.660254037844368" width="20" height="80" as="geometry" />
        </mxCell>
        <mxCell id="GCoAhBSmSbJlEYT9IqtD-43" value="" style="shape=singleArrow;direction=north;whiteSpace=wrap;html=1;arrowWidth=0.16666666666666666;arrowSize=0.075;rotation=-60;" parent="GCoAhBSmSbJlEYT9IqtD-182" vertex="1">
          <mxGeometry x="29.641016151377542" y="68.66025403784437" width="20" height="80" as="geometry" />
        </mxCell>
        <mxCell id="GCoAhBSmSbJlEYT9IqtD-44" value="" style="shape=singleArrow;direction=north;whiteSpace=wrap;html=1;arrowWidth=0.16666666666666666;arrowSize=0.075;rotation=-60;" parent="GCoAhBSmSbJlEYT9IqtD-182" vertex="1">
          <mxGeometry x="89.64101615137754" y="68.66025403784437" width="20" height="80" as="geometry" />
        </mxCell>
        <mxCell id="GCoAhBSmSbJlEYT9IqtD-45" value="" style="shape=singleArrow;direction=north;whiteSpace=wrap;html=1;arrowWidth=0.16666666666666666;arrowSize=0.075;rotation=-60;" parent="GCoAhBSmSbJlEYT9IqtD-182" vertex="1">
          <mxGeometry x="119.64101615137754" y="18.660254037844368" width="20" height="80" as="geometry" />
        </mxCell>
        <mxCell id="GCoAhBSmSbJlEYT9IqtD-46" value="" style="shape=singleArrow;direction=north;whiteSpace=wrap;html=1;arrowWidth=0.16666666666666666;arrowSize=0.075;rotation=-60;" parent="GCoAhBSmSbJlEYT9IqtD-182" vertex="1">
          <mxGeometry x="139.64101615137753" y="58.66025403784437" width="20" height="80" as="geometry" />
        </mxCell>
        <mxCell id="GCoAhBSmSbJlEYT9IqtD-47" value="" style="endArrow=none;html=1;rounded=0;strokeWidth=2;fillColor=#f8cecc;strokeColor=#b85450;exitX=0;exitY=0;exitDx=0;exitDy=11.666666666666666;exitPerimeter=0;edgeStyle=orthogonalEdgeStyle;curved=1;" parent="GCoAhBSmSbJlEYT9IqtD-182" source="GCoAhBSmSbJlEYT9IqtD-43" edge="1">
          <mxGeometry width="50" height="50" relative="1" as="geometry">
            <mxPoint x="374.6410161513775" y="-11.339745962155632" as="sourcePoint" />
            <mxPoint x="134.64101615137753" y="228.66025403784437" as="targetPoint" />
            <Array as="points">
              <mxPoint x="104.64101615137754" y="127.66025403784437" />
              <mxPoint x="104.64101615137754" y="228.66025403784437" />
            </Array>
          </mxGeometry>
        </mxCell>
        <mxCell id="GCoAhBSmSbJlEYT9IqtD-49" value="" style="endArrow=none;html=1;rounded=0;strokeWidth=2;fillColor=#f8cecc;strokeColor=#b85450;exitX=0;exitY=0;exitDx=0;exitDy=11.666666666666666;exitPerimeter=0;dashed=1;entryX=0;entryY=0;entryDx=0;entryDy=11.666666666666666;entryPerimeter=0;" parent="GCoAhBSmSbJlEYT9IqtD-182" source="GCoAhBSmSbJlEYT9IqtD-43" target="GCoAhBSmSbJlEYT9IqtD-44" edge="1">
          <mxGeometry width="50" height="50" relative="1" as="geometry">
            <mxPoint x="254.64536563608846" y="178.65687836487035" as="sourcePoint" />
            <mxPoint x="314.1710161513775" y="280.1002540378444" as="targetPoint" />
          </mxGeometry>
        </mxCell>
        <mxCell id="GCoAhBSmSbJlEYT9IqtD-50" value="" style="shape=parallelogram;perimeter=parallelogramPerimeter;whiteSpace=wrap;html=1;fixedSize=1;" parent="GCoAhBSmSbJlEYT9IqtD-182" vertex="1">
          <mxGeometry x="324.6410161513775" y="18.660254037844368" width="200" height="160" as="geometry" />
        </mxCell>
        <mxCell id="GCoAhBSmSbJlEYT9IqtD-51" value="" style="shape=parallelogram;perimeter=parallelogramPerimeter;whiteSpace=wrap;html=1;fixedSize=1;" parent="GCoAhBSmSbJlEYT9IqtD-182" vertex="1">
          <mxGeometry x="314.6410161513775" y="8.660254037844368" width="200" height="160" as="geometry" />
        </mxCell>
        <mxCell id="GCoAhBSmSbJlEYT9IqtD-52" value="" style="endArrow=none;html=1;rounded=0;strokeWidth=1;entryX=0;entryY=1;entryDx=0;entryDy=0;exitX=0;exitY=1;exitDx=0;exitDy=0;" parent="GCoAhBSmSbJlEYT9IqtD-182" source="GCoAhBSmSbJlEYT9IqtD-50" target="GCoAhBSmSbJlEYT9IqtD-51" edge="1">
          <mxGeometry width="50" height="50" relative="1" as="geometry">
            <mxPoint x="664.6410161513776" y="228.66025403784437" as="sourcePoint" />
            <mxPoint x="714.6410161513776" y="178.66025403784437" as="targetPoint" />
          </mxGeometry>
        </mxCell>
        <mxCell id="GCoAhBSmSbJlEYT9IqtD-53" value="" style="endArrow=none;html=1;rounded=0;strokeWidth=1;exitX=0.88;exitY=1;exitDx=0;exitDy=0;exitPerimeter=0;entryX=0.895;entryY=0.994;entryDx=0;entryDy=0;entryPerimeter=0;" parent="GCoAhBSmSbJlEYT9IqtD-182" source="GCoAhBSmSbJlEYT9IqtD-50" target="GCoAhBSmSbJlEYT9IqtD-51" edge="1">
          <mxGeometry width="50" height="50" relative="1" as="geometry">
            <mxPoint x="664.6410161513776" y="228.66025403784437" as="sourcePoint" />
            <mxPoint x="624.6410161513776" y="168.66025403784437" as="targetPoint" />
          </mxGeometry>
        </mxCell>
        <mxCell id="GCoAhBSmSbJlEYT9IqtD-54" value="" style="endArrow=none;html=1;rounded=0;strokeWidth=1;entryX=1;entryY=0;entryDx=0;entryDy=0;exitX=1;exitY=0;exitDx=0;exitDy=0;" parent="GCoAhBSmSbJlEYT9IqtD-182" source="GCoAhBSmSbJlEYT9IqtD-51" target="GCoAhBSmSbJlEYT9IqtD-50" edge="1">
          <mxGeometry width="50" height="50" relative="1" as="geometry">
            <mxPoint x="664.6410161513776" y="228.66025403784437" as="sourcePoint" />
            <mxPoint x="714.6410161513776" y="178.66025403784437" as="targetPoint" />
          </mxGeometry>
        </mxCell>
        <mxCell id="GCoAhBSmSbJlEYT9IqtD-55" value="" style="shape=singleArrow;direction=north;whiteSpace=wrap;html=1;arrowWidth=0.16666666666666666;arrowSize=0.075;rotation=-60;" parent="GCoAhBSmSbJlEYT9IqtD-182" vertex="1">
          <mxGeometry x="324.6410161513775" y="-11.339745962155632" width="20" height="80" as="geometry" />
        </mxCell>
        <mxCell id="GCoAhBSmSbJlEYT9IqtD-56" value="" style="shape=singleArrow;direction=north;whiteSpace=wrap;html=1;arrowWidth=0.16666666666666666;arrowSize=0.075;rotation=-60;" parent="GCoAhBSmSbJlEYT9IqtD-182" vertex="1">
          <mxGeometry x="329.6410161513775" y="28.660254037844368" width="20" height="80" as="geometry" />
        </mxCell>
        <mxCell id="GCoAhBSmSbJlEYT9IqtD-57" value="" style="shape=singleArrow;direction=north;whiteSpace=wrap;html=1;arrowWidth=0.16666666666666666;arrowSize=0.075;rotation=-60;" parent="GCoAhBSmSbJlEYT9IqtD-182" vertex="1">
          <mxGeometry x="314.6410161513775" y="68.66025403784437" width="20" height="80" as="geometry" />
        </mxCell>
        <mxCell id="GCoAhBSmSbJlEYT9IqtD-58" value="" style="shape=singleArrow;direction=north;whiteSpace=wrap;html=1;arrowWidth=0.16666666666666666;arrowSize=0.075;rotation=-60;" parent="GCoAhBSmSbJlEYT9IqtD-182" vertex="1">
          <mxGeometry x="374.6410161513775" y="68.66025403784437" width="20" height="80" as="geometry" />
        </mxCell>
        <mxCell id="GCoAhBSmSbJlEYT9IqtD-59" value="" style="shape=singleArrow;direction=north;whiteSpace=wrap;html=1;arrowWidth=0.16666666666666666;arrowSize=0.075;rotation=-60;" parent="GCoAhBSmSbJlEYT9IqtD-182" vertex="1">
          <mxGeometry x="404.6410161513775" y="18.660254037844368" width="20" height="80" as="geometry" />
        </mxCell>
        <mxCell id="GCoAhBSmSbJlEYT9IqtD-60" value="" style="shape=singleArrow;direction=north;whiteSpace=wrap;html=1;arrowWidth=0.16666666666666666;arrowSize=0.075;rotation=-60;" parent="GCoAhBSmSbJlEYT9IqtD-182" vertex="1">
          <mxGeometry x="424.6410161513775" y="58.66025403784437" width="20" height="80" as="geometry" />
        </mxCell>
        <mxCell id="GCoAhBSmSbJlEYT9IqtD-62" value="" style="endArrow=none;html=1;rounded=0;strokeWidth=2;fillColor=#f8cecc;strokeColor=#b85450;exitX=0;exitY=0;exitDx=0;exitDy=11.666666666666666;exitPerimeter=0;entryX=0;entryY=0;entryDx=0;entryDy=11.666666666666666;entryPerimeter=0;" parent="GCoAhBSmSbJlEYT9IqtD-182" source="GCoAhBSmSbJlEYT9IqtD-57" target="GCoAhBSmSbJlEYT9IqtD-58" edge="1">
          <mxGeometry width="50" height="50" relative="1" as="geometry">
            <mxPoint x="539.6453656360885" y="178.65687836487035" as="sourcePoint" />
            <mxPoint x="599.1710161513776" y="280.1002540378444" as="targetPoint" />
          </mxGeometry>
        </mxCell>
        <mxCell id="GCoAhBSmSbJlEYT9IqtD-64" value="" style="endArrow=none;html=1;rounded=0;strokeWidth=2;fillColor=#f8cecc;strokeColor=#b85450;exitX=0;exitY=0;exitDx=0;exitDy=8.333333333333334;exitPerimeter=0;edgeStyle=orthogonalEdgeStyle;curved=1;" parent="GCoAhBSmSbJlEYT9IqtD-182" source="GCoAhBSmSbJlEYT9IqtD-58" edge="1">
          <mxGeometry width="50" height="50" relative="1" as="geometry">
            <mxPoint x="374.64536563608846" y="218.65687836487035" as="sourcePoint" />
            <mxPoint x="464.6410161513775" y="228.66025403784437" as="targetPoint" />
            <Array as="points">
              <mxPoint x="418.6410161513775" y="258.66025403784437" />
              <mxPoint x="464.6410161513775" y="258.66025403784437" />
            </Array>
          </mxGeometry>
        </mxCell>
        <mxCell id="GCoAhBSmSbJlEYT9IqtD-65" value="" style="endArrow=none;html=1;rounded=0;strokeWidth=2;fillColor=#f8cecc;strokeColor=#b85450;exitX=0;exitY=0;exitDx=0;exitDy=8.333333333333334;exitPerimeter=0;entryX=0;entryY=0.5;entryDx=0;entryDy=0;entryPerimeter=0;dashed=1;" parent="GCoAhBSmSbJlEYT9IqtD-182" source="GCoAhBSmSbJlEYT9IqtD-60" target="GCoAhBSmSbJlEYT9IqtD-58" edge="1">
          <mxGeometry width="50" height="50" relative="1" as="geometry">
            <mxPoint x="204.64536563608846" y="178.65687836487035" as="sourcePoint" />
            <mxPoint x="264.1710161513775" y="280.1002540378444" as="targetPoint" />
          </mxGeometry>
        </mxCell>
        <mxCell id="GCoAhBSmSbJlEYT9IqtD-183" value="" style="group" parent="1" vertex="1" connectable="0">
          <mxGeometry x="100" y="820" width="280" height="240" as="geometry" />
        </mxCell>
        <mxCell id="GCoAhBSmSbJlEYT9IqtD-66" value="" style="ellipse;whiteSpace=wrap;html=1;aspect=fixed;fillColor=#f8cecc;strokeColor=#b85450;" parent="GCoAhBSmSbJlEYT9IqtD-183" vertex="1">
          <mxGeometry width="40" height="40" as="geometry" />
        </mxCell>
        <mxCell id="GCoAhBSmSbJlEYT9IqtD-67" value="" style="ellipse;whiteSpace=wrap;html=1;aspect=fixed;" parent="GCoAhBSmSbJlEYT9IqtD-183" vertex="1">
          <mxGeometry x="40" y="160" width="40" height="40" as="geometry" />
        </mxCell>
        <mxCell id="GCoAhBSmSbJlEYT9IqtD-68" value="" style="ellipse;whiteSpace=wrap;html=1;aspect=fixed;" parent="GCoAhBSmSbJlEYT9IqtD-183" vertex="1">
          <mxGeometry x="120" y="80" width="40" height="40" as="geometry" />
        </mxCell>
        <mxCell id="GCoAhBSmSbJlEYT9IqtD-69" value="" style="ellipse;whiteSpace=wrap;html=1;aspect=fixed;" parent="GCoAhBSmSbJlEYT9IqtD-183" vertex="1">
          <mxGeometry x="240" y="120" width="40" height="40" as="geometry" />
        </mxCell>
        <mxCell id="GCoAhBSmSbJlEYT9IqtD-70" value="" style="ellipse;whiteSpace=wrap;html=1;aspect=fixed;" parent="GCoAhBSmSbJlEYT9IqtD-183" vertex="1">
          <mxGeometry x="80" width="40" height="40" as="geometry" />
        </mxCell>
        <mxCell id="GCoAhBSmSbJlEYT9IqtD-71" value="" style="ellipse;whiteSpace=wrap;html=1;aspect=fixed;" parent="GCoAhBSmSbJlEYT9IqtD-183" vertex="1">
          <mxGeometry x="120" y="200" width="40" height="40" as="geometry" />
        </mxCell>
        <mxCell id="GCoAhBSmSbJlEYT9IqtD-273" value="&lt;b&gt;&lt;font style=&quot;font-size: 20px;&quot;&gt;(A)&lt;/font&gt;&lt;/b&gt;" style="text;html=1;strokeColor=none;fillColor=none;align=center;verticalAlign=middle;whiteSpace=wrap;rounded=0;" parent="1" vertex="1">
          <mxGeometry x="80" y="1400" width="360" height="40" as="geometry" />
        </mxCell>
        <mxCell id="GCoAhBSmSbJlEYT9IqtD-274" value="&lt;b&gt;&lt;font style=&quot;font-size: 20px;&quot;&gt;(B)&lt;/font&gt;&lt;/b&gt;" style="text;html=1;strokeColor=none;fillColor=none;align=center;verticalAlign=middle;whiteSpace=wrap;rounded=0;" parent="1" vertex="1">
          <mxGeometry x="440" y="1400" width="360" height="40" as="geometry" />
        </mxCell>
        <mxCell id="GCoAhBSmSbJlEYT9IqtD-277" value="&lt;b&gt;&lt;font style=&quot;font-size: 20px;&quot;&gt;(A)&lt;/font&gt;&lt;/b&gt;" style="text;html=1;strokeColor=none;fillColor=none;align=center;verticalAlign=middle;whiteSpace=wrap;rounded=0;" parent="1" vertex="1">
          <mxGeometry x="80" y="1720" width="360" height="40" as="geometry" />
        </mxCell>
        <mxCell id="GCoAhBSmSbJlEYT9IqtD-278" value="&lt;b&gt;&lt;font style=&quot;font-size: 20px;&quot;&gt;(B)&lt;/font&gt;&lt;/b&gt;" style="text;html=1;strokeColor=none;fillColor=none;align=center;verticalAlign=middle;whiteSpace=wrap;rounded=0;" parent="1" vertex="1">
          <mxGeometry x="440" y="1720" width="360" height="40" as="geometry" />
        </mxCell>
        <mxCell id="GCoAhBSmSbJlEYT9IqtD-279" value="&lt;b&gt;&lt;font style=&quot;font-size: 20px;&quot;&gt;(C)&lt;/font&gt;&lt;/b&gt;" style="text;html=1;strokeColor=none;fillColor=none;align=center;verticalAlign=middle;whiteSpace=wrap;rounded=0;" parent="1" vertex="1">
          <mxGeometry x="80" y="2040" width="360" height="40" as="geometry" />
        </mxCell>
        <mxCell id="GCoAhBSmSbJlEYT9IqtD-280" value="&lt;b&gt;&lt;font style=&quot;font-size: 20px;&quot;&gt;(D)&lt;/font&gt;&lt;/b&gt;" style="text;html=1;strokeColor=none;fillColor=none;align=center;verticalAlign=middle;whiteSpace=wrap;rounded=0;" parent="1" vertex="1">
          <mxGeometry x="440" y="2040" width="360" height="40" as="geometry" />
        </mxCell>
        <mxCell id="GCoAhBSmSbJlEYT9IqtD-281" value="&lt;b&gt;&lt;font style=&quot;font-size: 20px;&quot;&gt;(E)&lt;/font&gt;&lt;/b&gt;" style="text;html=1;strokeColor=none;fillColor=none;align=center;verticalAlign=middle;whiteSpace=wrap;rounded=0;" parent="1" vertex="1">
          <mxGeometry x="80" y="2360" width="360" height="40" as="geometry" />
        </mxCell>
        <mxCell id="GCoAhBSmSbJlEYT9IqtD-282" value="&lt;b&gt;&lt;font style=&quot;font-size: 20px;&quot;&gt;(F)&lt;/font&gt;&lt;/b&gt;" style="text;html=1;strokeColor=none;fillColor=none;align=center;verticalAlign=middle;whiteSpace=wrap;rounded=0;" parent="1" vertex="1">
          <mxGeometry x="440" y="2360" width="360" height="40" as="geometry" />
        </mxCell>
        <mxCell id="1rVyagnrC5N7-ifjqZCc-1" value="" style="endArrow=none;html=1;rounded=0;dashed=1;" edge="1" parent="1" source="GCoAhBSmSbJlEYT9IqtD-72" target="GCoAhBSmSbJlEYT9IqtD-73">
          <mxGeometry width="50" height="50" relative="1" as="geometry">
            <mxPoint x="144" y="1229" as="sourcePoint" />
            <mxPoint x="610" y="1046" as="targetPoint" />
          </mxGeometry>
        </mxCell>
        <mxCell id="1rVyagnrC5N7-ifjqZCc-2" value="" style="endArrow=none;html=1;rounded=0;dashed=1;" edge="1" parent="1" source="GCoAhBSmSbJlEYT9IqtD-72" target="GCoAhBSmSbJlEYT9IqtD-76">
          <mxGeometry width="50" height="50" relative="1" as="geometry">
            <mxPoint x="135" y="1189" as="sourcePoint" />
            <mxPoint x="165" y="1311" as="targetPoint" />
          </mxGeometry>
        </mxCell>
        <mxCell id="1rVyagnrC5N7-ifjqZCc-3" value="" style="endArrow=none;html=1;rounded=0;dashed=1;" edge="1" parent="1" source="GCoAhBSmSbJlEYT9IqtD-72" target="GCoAhBSmSbJlEYT9IqtD-74">
          <mxGeometry width="50" height="50" relative="1" as="geometry">
            <mxPoint x="145" y="1199" as="sourcePoint" />
            <mxPoint x="175" y="1321" as="targetPoint" />
          </mxGeometry>
        </mxCell>
        <mxCell id="1rVyagnrC5N7-ifjqZCc-4" value="" style="endArrow=none;html=1;rounded=0;dashed=1;" edge="1" parent="1" source="GCoAhBSmSbJlEYT9IqtD-72" target="GCoAhBSmSbJlEYT9IqtD-77">
          <mxGeometry width="50" height="50" relative="1" as="geometry">
            <mxPoint x="147" y="1181" as="sourcePoint" />
            <mxPoint x="233" y="1239" as="targetPoint" />
          </mxGeometry>
        </mxCell>
        <mxCell id="1rVyagnrC5N7-ifjqZCc-5" value="" style="endArrow=none;html=1;rounded=0;dashed=1;" edge="1" parent="1" source="GCoAhBSmSbJlEYT9IqtD-72" target="GCoAhBSmSbJlEYT9IqtD-75">
          <mxGeometry width="50" height="50" relative="1" as="geometry">
            <mxPoint x="157" y="1191" as="sourcePoint" />
            <mxPoint x="243" y="1249" as="targetPoint" />
          </mxGeometry>
        </mxCell>
        <mxCell id="1rVyagnrC5N7-ifjqZCc-6" style="edgeStyle=none;rounded=0;orthogonalLoop=1;jettySize=auto;html=1;dashed=1;strokeWidth=2;" edge="1" parent="1" source="GCoAhBSmSbJlEYT9IqtD-105" target="GCoAhBSmSbJlEYT9IqtD-102">
          <mxGeometry relative="1" as="geometry">
            <mxPoint x="130" y="1510" as="sourcePoint" />
            <mxPoint x="156" y="1630" as="targetPoint" />
          </mxGeometry>
        </mxCell>
        <mxCell id="1rVyagnrC5N7-ifjqZCc-7" style="edgeStyle=none;rounded=0;orthogonalLoop=1;jettySize=auto;html=1;dashed=1;strokeWidth=2;fillColor=#f8cecc;strokeColor=#B3B3B3;" edge="1" parent="1" source="GCoAhBSmSbJlEYT9IqtD-116" target="GCoAhBSmSbJlEYT9IqtD-117">
          <mxGeometry relative="1" as="geometry">
            <mxPoint x="140" y="1520" as="sourcePoint" />
            <mxPoint x="166" y="1640" as="targetPoint" />
          </mxGeometry>
        </mxCell>
      </root>
    </mxGraphModel>
  </diagram>
</mxfile>
